<svg xmlns="http://www.w3.org/2000/svg" width="115" height="59.155"><g data-name="Group 694"><path data-name="Rectangle 1628" fill="none" d="M0 .155h115v59H0z"/><g data-name="American_Express_logo_(2018)"><path d="M28 0h59.155v31.934l-2.928 4.575 2.928 4.072V59.15H28v-30.1l1.83-2.1L28 24.937z" fill="#016fd0"/><path d="M39.483 41.22v-9.287h9.833l1.055 1.375 1.09-1.375h35.693v8.647a4.122 4.122 0 0 1-2.013.641H65.378l-1.19-1.464v1.464h-3.9v-2.5a3.271 3.271 0 0 1-1.684.349h-1.327v2.15h-5.9l-1.054-1.4-1.07 1.4zM28 24.933l2.217-5.17h3.835l1.258 2.9v-2.9h4.767l.749 2.093.726-2.093h21.4v1.052a4.617 4.617 0 0 1 2.974-1.052l6.943.024 1.237 2.858v-2.882H78.1l1.1 1.642v-1.642h4.026v9.287H79.2l-1.052-1.647v1.647H72.28l-.589-1.464h-1.576l-.58 1.464H65.56a3.929 3.929 0 0 1-2.608-1.031v1.031h-5.993l-1.189-1.464v1.464H33.484l-.589-1.464h-1.571l-.585 1.464H28z" fill="#fff"/><path d="M31.002 20.909l-2.991 6.954h1.947l.552-1.393h3.208l.549 1.393h1.99l-2.988-6.954zm1.107 1.619l.978 2.433h-1.959zm4.354 5.333v-6.954l2.767.01 1.609 4.483 1.571-4.494h2.745v6.954h-1.738v-5.124l-1.843 5.124H40.05l-1.848-5.124v5.124zm9.882 0v-6.954h5.673v1.556h-3.916v1.189h3.825v1.464h-3.825v1.235h3.916v1.51zm6.683-6.952v6.954h1.738v-2.47h.732l2.084 2.47h2.125l-2.288-2.562a2.118 2.118 0 0 0 1.907-2.136 2.249 2.249 0 0 0-2.43-2.256zm1.738 1.555h1.987a.8.8 0 0 1 .823.732.786.786 0 0 1-.8.732h-2.013zm7.043 5.397h-1.775v-6.954h1.775zm4.209 0h-.383c-1.854 0-2.979-1.461-2.979-3.448a3.186 3.186 0 0 1 3.454-3.506h1.922v1.647H66.04a1.673 1.673 0 0 0-1.622 1.876 1.7 1.7 0 0 0 1.876 1.912h.457zm3.783-6.952l-2.991 6.954h1.948l.552-1.393h3.208l.549 1.393h1.99l-2.988-6.954zm1.107 1.619l.978 2.433h-1.959zm4.351 5.333v-6.954h2.21l2.822 4.369v-4.369h1.735v6.954h-2.139l-2.894-4.484v4.484zm-34.585 12.17v-6.954h5.673v1.556h-3.916v1.189h3.825v1.464h-3.825v1.235h3.916v1.51zm27.796 0v-6.954h5.673v1.556h-3.92v1.189h3.806v1.464h-3.806v1.235h3.916v1.51zm-21.904.001l2.762-3.434-2.828-3.52h2.19l1.684 2.176 1.69-2.176h2.1l-2.791 3.477 2.767 3.477h-2.19l-1.635-2.142-1.6 2.142zm7.786-6.954v6.954h1.784v-2.2h1.83c1.548 0 2.722-.822 2.722-2.419a2.289 2.289 0 0 0-2.5-2.339zm1.784 1.573h1.927a.785.785 0 0 1 .858.8.8.8 0 0 1-.863.8h-1.922v-1.6zm5.307-1.574v6.954h1.738v-2.47h.732l2.084 2.47h2.125l-2.288-2.562a2.118 2.118 0 0 0 1.907-2.136 2.25 2.25 0 0 0-2.43-2.256h-3.869zm1.738 1.555h1.987a.8.8 0 0 1 .823.732.786.786 0 0 1-.8.732h-2.013zm11.767 5.4v-1.51h3.479c.515 0 .738-.278.738-.583s-.222-.588-.738-.588h-1.572a1.944 1.944 0 0 1-2.128-2.083c0-1.115.7-2.19 2.728-2.19h3.385l-.732 1.565H77.18c-.56 0-.732.294-.732.574a.606.606 0 0 0 .641.606h1.647a1.908 1.908 0 0 1 2.185 2 2.085 2.085 0 0 1-2.268 2.213zm6.381 0v-1.51h3.479c.515 0 .738-.278.738-.583s-.222-.588-.738-.588h-1.572a1.944 1.944 0 0 1-2.128-2.083c0-1.115.7-2.19 2.728-2.19h3.385l-.732 1.565h-2.928c-.56 0-.732.294-.732.574a.606.606 0 0 0 .641.606h1.647a1.908 1.908 0 0 1 2.185 2 2.085 2.085 0 0 1-2.267 2.213z" fill="#016fd0"/></g></g></svg>