<svg xmlns="http://www.w3.org/2000/svg" xmlns:xlink="http://www.w3.org/1999/xlink" width="115" height="59"><defs><linearGradient id="e" x1="-.073" y1="-.054" x2=".988" y2=".971" gradientUnits="objectBoundingBox"><stop offset="0" stop-color="#dff4ff"/><stop offset=".098" stop-color="#d6eaf5"/><stop offset=".268" stop-color="#bfd0d9"/><stop offset=".488" stop-color="#98a5ac"/><stop offset=".747" stop-color="#646b6e"/><stop offset="1" stop-color="#2b2b2b"/></linearGradient><radialGradient id="f" cx="23.521" cy="25.812" r="41.904" gradientUnits="userSpaceOnUse"><stop offset="0" stop-color="#fff"/><stop offset=".306" stop-color="#a8a8a8"/><stop offset=".646" stop-color="#4f4f4f"/><stop offset=".885" stop-color="#161616"/><stop offset="1"/></radialGradient><linearGradient id="g" x1="-.201" y1=".187" x2=".86" y2="1.212" gradientUnits="objectBoundingBox"><stop offset="0" stop-color="#dff4ff"/><stop offset=".086" stop-color="#d6eaf5"/><stop offset=".233" stop-color="#bed0d9"/><stop offset=".424" stop-color="#96a4ac"/><stop offset=".652" stop-color="#5f686d"/><stop offset=".908" stop-color="#1a1d1e"/><stop offset="1"/></linearGradient><radialGradient id="a" cx="236.561" cy="21.818" r="115.397" gradientTransform="matrix(.873 0 0 .873 -24.099 -2.709)" gradientUnits="userSpaceOnUse"><stop offset="0" stop-color="#fff"/><stop offset=".31" stop-color="#fdfdfd"/><stop offset=".451" stop-color="#f6f6f6"/><stop offset=".557" stop-color="#e9e9e9"/><stop offset=".646" stop-color="#d7d7d7"/><stop offset=".724" stop-color="#bfbfbf"/><stop offset=".794" stop-color="#a2a2a2"/><stop offset=".859" stop-color="gray"/><stop offset=".92" stop-color="#575757"/><stop offset=".975" stop-color="#2b2b2b"/><stop offset="1" stop-color="#141414"/></radialGradient><radialGradient id="h" cx="717.776" cy="143.974" r="99.16" gradientTransform="translate(.268 .062) scale(1.016)" xlink:href="#a"/><radialGradient id="i" cx="97.857" cy="147.463" r="100.759" gradientTransform="translate(.005 .004)" xlink:href="#a"/><radialGradient id="c" cx="193.593" cy="195.079" r="27.157" gradientUnits="userSpaceOnUse"><stop offset="0" stop-color="#e6e6e6"/><stop offset=".105" stop-color="#d6d6d6"/><stop offset=".307" stop-color="#adadad"/><stop offset=".588" stop-color="#6c6c6c"/><stop offset=".933" stop-color="#121212"/><stop offset="1"/></radialGradient><radialGradient id="j" cx="209.471" cy="207.18" r="39.501" gradientUnits="userSpaceOnUse"><stop offset="0" stop-color="#fff"/><stop offset=".343" stop-color="#fdfdfd"/><stop offset=".481" stop-color="#f6f6f6"/><stop offset=".582" stop-color="#eaeaea"/><stop offset=".665" stop-color="#d8d8d8"/><stop offset=".737" stop-color="#c2c2c2"/><stop offset=".802" stop-color="#a6a6a6"/><stop offset=".86" stop-color="#848484"/><stop offset=".913" stop-color="#5f5f5f"/><stop offset=".949" stop-color="#404040"/><stop offset=".957" stop-color="#404040"/><stop offset="1" stop-color="#404040"/><stop offset="1"/></radialGradient><radialGradient id="b" cx="197.425" cy="191.769" r="69.968" gradientUnits="userSpaceOnUse"><stop offset=".169" stop-color="#fff"/><stop offset=".196" stop-color="#e0eff7"/><stop offset=".241" stop-color="#b2d9ec"/><stop offset=".287" stop-color="#8bc5e2"/><stop offset=".335" stop-color="#6bb5da"/><stop offset=".384" stop-color="#52a9d4"/><stop offset=".436" stop-color="#41a0cf"/><stop offset=".491" stop-color="#369bcd"/><stop offset=".556" stop-color="#39c"/><stop offset=".606" stop-color="#3396c8"/><stop offset=".655" stop-color="#328ebc"/><stop offset=".705" stop-color="#3180a8"/><stop offset=".754" stop-color="#2f6d8c"/><stop offset=".803" stop-color="#2d5468"/><stop offset=".851" stop-color="#2a373d"/><stop offset=".871" stop-color="#292929"/></radialGradient><radialGradient id="k" cx="483.332" cy="477.675" r="69.948" xlink:href="#b"/><radialGradient id="l" cx="199.596" cy="201.053" r="26.635" xlink:href="#c"/><linearGradient id="d" x1="-.22" y1="-.377" x2="1.28" y2="1.073" gradientUnits="objectBoundingBox"><stop offset="0" stop-color="#f0f4ff"/><stop offset=".109" stop-color="#ebeff9"/><stop offset=".248" stop-color="#dce0ea"/><stop offset=".403" stop-color="#c4c7cf"/><stop offset=".57" stop-color="#a2a4ab"/><stop offset=".747" stop-color="#76777c"/><stop offset=".929" stop-color="#414243"/><stop offset="1" stop-color="#2b2b2b"/></linearGradient><linearGradient id="m" x1="-.401" y1="-.189" x2="1.099" y2="1.26" xlink:href="#d"/><linearGradient id="n" x1=".325" y1=".331" x2="1.102" y2="1.082" gradientUnits="objectBoundingBox"><stop offset="0" stop-color="#c2d7e8"/><stop offset=".134" stop-color="#bacfe1"/><stop offset=".343" stop-color="#a4bacd"/><stop offset=".6" stop-color="#8098ac"/><stop offset=".894" stop-color="#4e697f"/><stop offset="1" stop-color="#3a566d"/></linearGradient><linearGradient id="o" x1="-.073" y1="-.53" x2="1.426" y2=".922" gradientUnits="objectBoundingBox"><stop offset="0" stop-color="#f0f4ff"/><stop offset=".097" stop-color="#e8ebf6"/><stop offset=".257" stop-color="#d1d4dd"/><stop offset=".459" stop-color="#abaeb5"/><stop offset=".695" stop-color="#78797d"/><stop offset=".958" stop-color="#363637"/><stop offset="1" stop-color="#2b2b2b"/></linearGradient><linearGradient id="p" x1="-.008" y1=".009" x2=".518" y2=".518" gradientUnits="objectBoundingBox"><stop offset="0" stop-color="#d9def0"/><stop offset=".123" stop-color="#d4daec"/><stop offset=".263" stop-color="#c7cfe2"/><stop offset=".411" stop-color="#b0bcd1"/><stop offset=".566" stop-color="#90a1b8"/><stop offset=".725" stop-color="#677f99"/><stop offset=".885" stop-color="#355674"/><stop offset=".972" stop-color="#173d5d"/></linearGradient><linearGradient id="q" x1="-.547" y1="-.038" x2=".953" y2="1.411" xlink:href="#d"/></defs><g data-name="Group 685"><path data-name="Rectangle 1629" fill="none" d="M0 0h115v59H0z"/><path data-name="Path 654" d="M29.5 0A29.5 29.5 0 1 0 59 29.5 29.5 29.5 0 0 0 29.5 0zm0 57.525A28.025 28.025 0 1 1 57.526 29.5 28.024 28.024 0 0 1 29.5 57.525z" fill="url(#e)" transform="translate(28)"/><path data-name="Path 655" d="M85.737 29.5A28.236 28.236 0 1 1 57.501 1.264 28.238 28.238 0 0 1 85.737 29.5z" fill="#333"/><path data-name="Path 656" d="M81.415 53.361a28.025 28.025 0 1 1-28.026-28.025 28.025 28.025 0 0 1 28.026 28.025z" transform="translate(4.111 -23.861)" fill="url(#f)"/><path data-name="Path 657" d="M221.62 202.821a18.789 18.789 0 1 1-18.789-18.789 18.788 18.788 0 0 1 18.789 18.789z" transform="translate(-145.33 -173.321)" fill="url(#g)"/><path data-name="Path 658" d="M58.252 10.203l1.952-5.173v5.173h1.482V2.795h-2.228l-2.026 5.3h.019l-2.026-5.3h-2.228v7.408h1.482V5.031l1.952 5.173z"/><path data-name="Path 659" d="M78.596 13.525l-2.533 3.693 3.978-1.956 1.079 1.294-6.261 3.144-1.265-1.532 2.427-3.659-.014-.018-4.037 1.728-1.28-1.521 4.222-5.59 1.079 1.295-2.643 3.56 4.091-1.825z"/><path data-name="Path 660" d="M44.38 12.11a1.89 1.89 0 0 0-2.383-.217 1.646 1.646 0 0 0 .011-1.107 2.644 2.644 0 0 0-.809-1.022c-1-.834-2.042-.122-2.79.769l-3.615 4.309 5.684 4.768 3.812-4.543c.875-1.037 1.006-2.067.09-2.957zm-7.352 2.078L39.2 11.6a.885.885 0 0 1 1.186.02.78.78 0 0 1 .133 1.137l-2.147 2.558zm5.991.43l-2.264 2.7-1.418-1.191 2.281-2.719a.929.929 0 0 1 1.4 1.212z" fill="#333"/><path data-name="Path 661" d="M438.267 50.511l1.952-5.173v5.173h1.481V43.1h-2.228l-2.026 5.3h.019l-2.026-5.3h-2.228v7.408h1.482v-5.169l1.952 5.173z" transform="translate(-379.998 -40.594)" fill="url(#a)"/><path data-name="Path 662" d="M741.663 152.348l-2.532 3.693 3.978-1.957 1.078 1.295-6.26 3.144-1.265-1.532 2.427-3.659-.014-.019-4.038 1.729-1.278-1.522 4.221-5.589 1.079 1.294-2.643 3.56 4.089-1.824z" transform="translate(-663.052 -139.32)" fill="url(#h)"/><path data-name="Path 663" d="M121.755 161.6a1.889 1.889 0 0 0-2.381-.218 1.65 1.65 0 0 0 .01-1.106 2.618 2.618 0 0 0-.81-1.023c-1-.834-2.041-.122-2.787.77l-3.617 4.308 5.684 4.768 3.812-4.543c.869-1.036 1.005-2.064.089-2.956zm-7.352 2.078l2.171-2.587a.885.885 0 0 1 1.186.019.778.778 0 0 1 .132 1.137l-2.146 2.559zm5.992.43l-2.264 2.7-1.42-1.191 2.282-2.719a.93.93 0 0 1 1.4 1.213z" transform="translate(-77.64 -149.637)" fill="url(#i)"/><path data-name="Path 664" d="M194.788 212.934a18.164 18.164 0 1 1 18.164 18.166 18.164 18.164 0 0 1-18.164-18.166z" transform="translate(-155.451 -183.434)" fill="url(#c)"/><path data-name="Path 665" d="M203.759 221.382a17.642 17.642 0 1 1 17.641 17.642 17.642 17.642 0 0 1-17.641-17.642z" transform="translate(-163.9 -191.882)" fill="url(#j)"/><path data-name="Path 666" d="M203.284 220.946h17.669v-17.669a17.668 17.668 0 0 0-17.669 17.669z" transform="translate(-163.452 -191.446)" fill="url(#b)"/><path data-name="Path 667" d="M506.86 506.852v17.669a17.669 17.669 0 0 0 17.669-17.669z" transform="translate(-449.359 -477.352)" fill="url(#k)"/><path data-name="Path 668" d="M236.4 218.252h-17.5v-17.5h-.627v17.5h-17.5v.627h17.5v17.5h.627v-17.5h17.5z" transform="translate(-161.083 -189.066)" fill="url(#l)"/><path data-name="Path 669" d="M512.241 204.189A17.323 17.323 0 0 1 529.25 221.2h.312a17.636 17.636 0 0 0-17.321-17.32v.314z" transform="translate(-454.427 -192.009)" fill="url(#d)"/><path data-name="Path 670" d="M40.148 29.184a17.346 17.346 0 0 1 17.03-17.03v-.313a17.659 17.659 0 0 0-17.344 17.344h.313z" fill="#c2d7e8"/><path data-name="Path 671" d="M221.2 529.232a17.322 17.322 0 0 1-17-17.007h-.313a17.636 17.636 0 0 0 17.313 17.321v-.313z" transform="translate(-164.017 -482.412)" fill="url(#m)"/><path data-name="Path 672" d="M74.823 29.813A17.323 17.323 0 0 1 57.814 46.82v.313a17.635 17.635 0 0 0 17.321-17.321z" fill="#12404f"/><path data-name="Path 673" d="M220.616 203.432v17h-17v.335h17.334v-17.335z" transform="translate(-163.763 -191.592)" fill="url(#n)"/><path data-name="Path 674" d="M222.861 529.829v-16.8h-16.832v-.329h17.164v17.129z" transform="translate(-166.038 -482.859)" fill="url(#o)"/><path data-name="Path 675" d="M513.067 529.829v-16.8h16.8v-.329h-17.13v17.129z" transform="translate(-454.894 -482.859)" fill="url(#p)"/><path data-name="Path 676" d="M513.067 206.011v16.8h16.8v.331h-17.13v-17.131z" transform="translate(-454.894 -194.021)" fill="url(#q)"/></g></svg>