<svg xmlns="http://www.w3.org/2000/svg" width="115" height="59"><g data-name="Group 699"><path data-name="Rectangle 1628" fill="none" d="M0 0h115v59H0z"/><g fill="#049fd9"><path d="M57.038 39.368a20.872 20.872 0 0 0-4.772-.618c-4.512 0-7.229 2.437-7.229 6.065 0 3.212 2.273 4.814 5 5.675.3.1.748.239 1.045.338 1.214.382 2.183.95 2.183 1.933 0 1.1-1.12 1.811-3.555 1.811a18.348 18.348 0 0 1-4.624-.721v4.464a29.243 29.243 0 0 0 5.284.53c3.746 0 8.032-1.637 8.032-6.51 0-2.364-1.447-4.54-4.625-5.55l-1.351-.43c-.806-.254-2.244-.666-2.244-1.847 0-.933 1.066-1.59 3.028-1.59a16.794 16.794 0 0 1 3.827.592zm41.372 9.43a5.062 5.062 0 1 1-5.063-5.1 5.018 5.018 0 0 1 5.063 5.1m-5.063-10.042a10.047 10.047 0 1 0 10.252 10.042 9.957 9.957 0 0 0-10.252-10.042M38.472 58.5h-4.9V39.1h4.9m-11.625.351a14.9 14.9 0 0 0-4.464-.7c-5.958 0-10.331 4.248-10.331 10.042 0 6.251 4.828 10.047 10.331 10.047a15.53 15.53 0 0 0 4.464-.691v-5.202a8.585 8.585 0 0 1-4.113 1.03 5.18 5.18 0 1 1 0-10.353 8.5 8.5 0 0 1 4.113 1.036m51.099-5.209a14.9 14.9 0 0 0-4.464-.7c-5.958 0-10.331 4.248-10.331 10.042 0 6.251 4.828 10.047 10.331 10.047a15.53 15.53 0 0 0 4.464-.691v-5.202a8.585 8.585 0 0 1-4.113 1.03 5.18 5.18 0 1 1 0-10.353 8.5 8.5 0 0 1 4.113 1.036M33.562 2.426a2.431 2.431 0 0 0-4.861 0v25.757a2.431 2.431 0 0 0 4.861 0zm-13.351 9.14a2.43 2.43 0 0 0-4.861 0v11.778a2.43 2.43 0 0 0 4.861 0zm-13.35 6.685a2.43 2.43 0 0 0-4.861 0v5.093a2.43 2.43 0 0 0 4.861 0"/><path d="M28.7 2.421a2.431 2.431 0 0 1 4.861 0v25.762a2.431 2.431 0 0 1-4.861 0zm13.351 9.145a2.43 2.43 0 0 1 4.861 0v11.778a2.43 2.43 0 0 1-4.861 0zm13.35 6.685a2.43 2.43 0 0 1 4.861 0v5.093a2.43 2.43 0 0 1-4.861 0"/><path data-name="path16" d="M82.086 2.421a2.431 2.431 0 0 1 4.861 0v25.762a2.431 2.431 0 0 1-4.861 0zm13.351 9.145a2.43 2.43 0 0 1 4.861 0v11.778a2.43 2.43 0 0 1-4.861 0zm13.35 6.685a2.43 2.43 0 0 1 4.861 0v5.093a2.43 2.43 0 0 1-4.861 0"/><path data-name="use18" d="M86.948 2.422a2.431 2.431 0 0 0-4.861 0v25.761a2.431 2.431 0 0 0 4.861 0zm-13.351 9.144a2.43 2.43 0 0 0-4.861 0v11.778a2.43 2.43 0 0 0 4.861 0zm-13.35 6.685a2.43 2.43 0 0 0-4.861 0v5.093a2.43 2.43 0 0 0 4.861 0"/></g></g></svg>