<svg xmlns="http://www.w3.org/2000/svg" width="115" height="59"><g data-name="Group 684"><path data-name="Rectangle 1634" fill="none" d="M0 0h115v59H0z"/><g data-name="Facebook_New_Logo_(2015)"><g data-name="Group 682"><path data-name="Rectangle 1636" fill="#3b5998" d="M0 8h114.999v43.233H0z"/></g><g data-name="Group 683" fill="#fff" fill-rule="evenodd"><path data-name="Path 677" d="M62.204 26.521a3.957 3.957 0 0 0-3.69 1.529v-7.666l-3.763.456v17.742h3.76v-1.053a6.945 6.945 0 0 0 1.579 1.005 4.586 4.586 0 0 0 6.1-2.788 9.776 9.776 0 0 0 .144-5.713 4.395 4.395 0 0 0-4.13-3.512zm.562 7.684a1.937 1.937 0 0 1-2.2 1.7 2.609 2.609 0 0 1-.755-.165 2.562 2.562 0 0 1-1.239-1.906 8.383 8.383 0 0 1 .279-3.395 1.936 1.936 0 0 1 1.744-1 1.914 1.914 0 0 1 2.159 1.675 10.876 10.876 0 0 1 .013 3.091z"/><path data-name="Path 678" d="M75.542 26.736a7.526 7.526 0 0 0-3.933 0 4.738 4.738 0 0 0-3.686 3.723 12.624 12.624 0 0 0-.215 3.314 5.067 5.067 0 0 0 4.111 4.867c.034.008.069.014.1.022h.018c.093.019.186.036.279.05l.094.008a3.8 3.8 0 0 0 .406.049 7.569 7.569 0 0 0 1.577.027h.085a5.159 5.159 0 0 0 4.94-4.115 8.957 8.957 0 0 0 .01-3.977 4.942 4.942 0 0 0-3.786-3.968zm.159 7.274c-.013.078-.026.156-.043.233a2.129 2.129 0 0 1-4.192-.223 14.434 14.434 0 0 1-.017-2.55 2.145 2.145 0 0 1 4.214-.447 11.477 11.477 0 0 1 .038 2.991z"/><path data-name="Path 679" d="M19.046 26.678H16.36v-1.786c.2-1.689 2.986-1.368 2.986-1.368v-2.9c-.1-.023-5.549-1.317-6.631 2.833l-.007.027a21.069 21.069 0 0 0-.157 3.194h-2.332v3.177h2.472v8.642h3.6v-8.642h2.754l.31-3.177z"/><path data-name="Path 680" d="M27.633 28.198c-.044-.049-.088-.1-.125-.135l-.017-.017-.089-.091a3.717 3.717 0 0 0-1.832-1.272 4.6 4.6 0 0 0-5.827 3.154 10.18 10.18 0 0 0-.207 4.8 4.637 4.637 0 0 0 5.933 4.05 3.553 3.553 0 0 0 2.049-1.43 1.166 1.166 0 0 0 .116-.188v1.525h3.512v-11.9h-3.512v1.507zm-.309 5.99a1.9 1.9 0 0 1-2.061 1.72 1.993 1.993 0 0 1-2.025-1.655 10.311 10.311 0 0 1 .075-3.364 1.9 1.9 0 0 1 2.056-1.453 1.869 1.869 0 0 1 1.951 1.708 14.248 14.248 0 0 1 .004 3.043z"/><path data-name="Path 681" d="M41.872 37.741a43.75 43.75 0 0 0-.528-1.752l-.169-.632s-4.4 2.113-5.089-1.9a8.647 8.647 0 0 1 .047-2 2.157 2.157 0 0 1 2.122-2.009 4.74 4.74 0 0 1 1.227.049c.546.092 1.078.256 1.675.4.208-.635.42-1.263.617-1.9.031-.1.057-.185.077-.261l.1-.38a.449.449 0 0 0-.165-.154 1.973 1.973 0 0 0-.543-.254 8.197 8.197 0 0 0-.324-.108l-.16-.049a9.254 9.254 0 0 0-3.55-.229 5.04 5.04 0 0 0-4.744 4.251 9.641 9.641 0 0 0 .049 3.929 4.774 4.774 0 0 0 3.547 3.787 8.719 8.719 0 0 0 3.831.184 12.055 12.055 0 0 0 1.869-.563l.211-.074-.1-.339z"/><path data-name="Path 682" d="M53.461 33.085a20.177 20.177 0 0 0-.122-2.462 4.4 4.4 0 0 0-3.862-3.992 9.979 9.979 0 0 0-2.565-.04 4.682 4.682 0 0 0-4.443 3.842 13.833 13.833 0 0 0-.07 4.045 4.36 4.36 0 0 0 2.917 3.873h.022a11.377 11.377 0 0 0 7.825-.451l-.133-.487c-.153-.649-.337-1.292-.511-1.936l-.019-.063s-.069.025-.191.064H52.3a7.277 7.277 0 0 0-.429.129l-.079.025a14.156 14.156 0 0 1-1.972.412 10.333 10.333 0 0 1-1.922.011 1.89 1.89 0 0 1-1.815-2.066h6.923s.442-.006.461-.01v-.131zm-3.384-1.623h-4.066a2.191 2.191 0 0 1 .841-2.019 2.247 2.247 0 0 1 2.392-.068c.792.439.855 1.231.833 2.087z"/><path data-name="Path 683" d="M104.781 26.816h-3.992l-3.467 5.421V20.395l-3.763.456v17.743h3.763v-5.43l3.467 5.438h3.992l-3.763-5.9z"/><path data-name="Path 684" d="M88.376 26.739a7.525 7.525 0 0 0-3.934 0 4.738 4.738 0 0 0-3.685 3.723 12.626 12.626 0 0 0-.215 3.315 5.066 5.066 0 0 0 4.111 4.867l.1.022h.017c.093.019.187.036.28.05l.094.008c.118.022.258.038.4.05a7.579 7.579 0 0 0 1.578.027h.084a5.161 5.161 0 0 0 4.941-4.115 8.971 8.971 0 0 0 .011-3.978 4.944 4.944 0 0 0-3.782-3.969zm.159 7.274a4.356 4.356 0 0 1-.043.233 2.129 2.129 0 0 1-4.192-.223 14.428 14.428 0 0 1-.018-2.549 2.145 2.145 0 0 1 4.215-.447 11.5 11.5 0 0 1 .04 2.985z"/></g></g></g></svg>