<svg xmlns="http://www.w3.org/2000/svg" width="115" height="59"><g data-name="Group 691"><path data-name="Rectangle 1623" fill="none" d="M0 0h115v59H0z"/><path data-name="Path 645" d="M49.213 30.826a9.49 9.49 0 1 1-9.49-9.46 9.343 9.343 0 0 1 9.49 9.46zm-4.154 0a5.349 5.349 0 1 0-10.671 0 5.349 5.349 0 1 0 10.671 0z" fill="#ea4335"/><path data-name="Path 646" d="M69.685 30.826a9.49 9.49 0 1 1-9.489-9.46 9.343 9.343 0 0 1 9.489 9.46zm-4.154 0a5.349 5.349 0 1 0-10.671 0 5.349 5.349 0 1 0 10.671 0z" fill="#fbbc05"/><path data-name="Path 647" d="M89.304 21.938v16.983c0 6.986-4.12 9.839-8.99 9.839a9.008 9.008 0 0 1-8.385-5.574l3.617-1.506a5.225 5.225 0 0 0 4.764 3.357c3.118 0 5.05-1.923 5.05-5.544v-1.362h-.145a6.441 6.441 0 0 1-4.981 2.15 9.466 9.466 0 0 1 0-18.915 6.555 6.555 0 0 1 4.981 2.115h.145v-1.54h3.945zm-3.651 8.922c0-3.331-2.222-5.766-5.05-5.766a5.47 5.47 0 0 0-5.267 5.766 5.429 5.429 0 0 0 5.267 5.7c2.828-.002 5.05-2.403 5.05-5.7z" fill="#4285f4"/><path data-name="Path 648" d="M95.808 11.983v27.722h-4.052V11.983z" fill="#34a853"/><path data-name="Path 649" d="M111.596 33.939l3.224 2.15a9.416 9.416 0 0 1-7.882 4.192 9.255 9.255 0 0 1-9.387-9.46c0-5.625 4.047-9.46 8.922-9.46 4.909 0 7.31 3.907 8.095 6.018l.431 1.075-12.645 5.238a4.814 4.814 0 0 0 4.585 2.866 5.4 5.4 0 0 0 4.657-2.619zm-9.925-3.4l8.453-3.51a3.662 3.662 0 0 0-3.51-2 5.189 5.189 0 0 0-4.942 5.507z" fill="#ea4335"/><path data-name="Path 650" d="M14.897 28.365v-4.014h13.525a13.3 13.3 0 0 1 .2 2.422 13.254 13.254 0 0 1-3.476 9.387 13.432 13.432 0 0 1-10.244 4.12A14.9 14.9 0 0 1 0 25.592a14.9 14.9 0 0 1 14.902-14.688 14 14 0 0 1 10.065 4.047l-2.827 2.832a10.23 10.23 0 0 0-7.238-2.866A10.536 10.536 0 0 0 4.363 25.592a10.536 10.536 0 0 0 10.534 10.676 9.827 9.827 0 0 0 7.417-2.934 8.318 8.318 0 0 0 2.175-4.969z" fill="#4285f4"/></g></svg>