<svg xmlns="http://www.w3.org/2000/svg" width="115" height="59"><defs><clipPath id="a"><path data-name="Union 12" d="M98.235 45.817V19.748L88.96 45.813h-.192l-9.444-26.06v26.064H63.475v-9.369h6.217V9.483H63.3V.114h18.037l7.489 20.9 7.4-20.9h17.862v9.369h-6.217v26.965h6.391v9.369zm-72.844 0v-9.369h6.391V9.483h-6.391V.114h24.168a12.066 12.066 0 0 1 7.525 3.127L59.628 6.2c.721.716 1.134 3.122 1.134 3.122l.263 2.954a10.653 10.653 0 0 1-.612 3.131L59.1 18.362a10.547 10.547 0 0 1-2.714 3.127v2.954A10.548 10.548 0 0 1 59.1 27.57l1.317 2.954a10.653 10.653 0 0 1 .612 3.131l-.263 2.954s-.413 2.407-1.134 3.122l-2.548 2.959a12.067 12.067 0 0 1-7.525 3.127zm16.023-9.369h9.368v-8.683h-9.368zm0-18.281h9.368V9.483h-9.368zM.174 45.817v-9.369h6.217V9.483H0V0h22.24v9.483h-6.217v26.965h6.391v9.369z" transform="translate(0 -1)" fill="none"/></clipPath></defs><g data-name="Group 700"><path data-name="Rectangle 1628" fill="none" d="M0 0h115v59H0z"/><g transform="translate(.455 7.57)" clip-path="url(#a)"><path data-name="Path 686" d="M0 .678h117.685V6.76H0m0 6.082h111.4v6.083H0v6.081h111.4v6.081H0m0 6.083h117.685v6.083H0" fill="none" stroke="#1f70c1" stroke-width="27.37"/></g></g></svg>