<svg xmlns="http://www.w3.org/2000/svg" width="115" height="59"><g data-name="Group 681"><path data-name="Rectangle 1635" fill="none" d="M0 0h115v59H0z"/><g fill="#0071c5"><path d="M39.36 25.026v14.448h-4.6V21.313l9.5.009c4.033 0 5.407 2.844 5.407 5.427v12.725h-4.595v-12.7c0-1.082-.56-1.748-1.911-1.748h-3.8zm31.274-.217a3.524 3.524 0 0 0-3.3 1.905 4.709 4.709 0 0 0-.44 1.97h7.076c-.091-1.97-.984-3.875-3.339-3.875M66.9 31.814a3.817 3.817 0 0 0 4.07 4.086 5.172 5.172 0 0 0 4.216-1.731l2.841 2.712a9.078 9.078 0 0 1-7.09 2.886c-4.4 0-8.616-2.4-8.616-9.4 0-5.978 3.679-9.362 8.513-9.362 4.9 0 7.73 3.962 7.73 9.152v1.657H66.9m-8.459 7.637a4.952 4.952 0 0 1-5.341-5.184v-17.9h4.592v4.948h3.462v3.712h-3.46v8.953a1.432 1.432 0 0 0 1.594 1.641h1.868v3.831h-2.718M30.669 18.8h-4.631v-4.4h4.631v4.4zm.012 20.861c-3.468-.333-4.647-2.437-4.647-4.864l.005-13.488h4.641v18.356zm55.192-.388c-3.461-.334-4.635-2.434-4.635-4.858V13.779h4.635v25.5zm16.2-22.515C97.874-3.716 58.124-5.012 32.5 10.585v1.722C58.1-.846 94.4-.769 97.706 18.092c1.106 6.236-2.408 12.739-8.684 16.476v4.89c7.554-2.764 15.3-11.726 13.053-22.7M55.5 52.589c-17.683 1.635-36.109-.932-38.688-14.75-1.262-6.812 1.841-14.032 5.958-18.517v-2.4c-7.41 6.5-11.432 14.727-9.116 24.448 2.955 12.465 18.769 19.53 42.908 17.183 9.55-.932 22.051-4 30.741-8.773V43c-7.885 4.7-20.934 8.578-31.8 9.585"/><path d="M91.23 15.149c0-.225-.131-.3-.431-.3h-.285v.636c.042 0 .252.008.289.008.3 0 .431-.1.431-.311v-.037zm.452 1.577h-.343a.082.082 0 0 1-.071-.045l-.469-.796a.106.106 0 0 0-.065-.035h-.21v.787a.084.084 0 0 1-.084.087h-.311a.091.091 0 0 1-.077-.087v-1.99c0-.115.045-.163.142-.178s.407-.024.568-.024c.57 0 .915.168.915.7v.04a.566.566 0 0 1-.421.592l.485.821a.331.331 0 0 1 .014.059.066.066 0 0 1-.074.068m-.815-2.64a1.532 1.532 0 1 0 1.53 1.537 1.538 1.538 0 0 0-1.53-1.537m0 3.381a1.844 1.844 0 1 1 1.849-1.844 1.841 1.841 0 0 1-1.849 1.844"/></g></g></svg>