<svg xmlns="http://www.w3.org/2000/svg" width="48.448" height="48.662"><path data-name="Path 505" d="M26.842 46.634l1.511-2.357a5.989 5.989 0 0 0 3.785 1.725c1.125 0 1.925-.59 1.925-1.381 0-1.041-1.46-1.4-3.529-2.129-1.348-.529-3.348-1.916-3.348-3.988s1.432-4.162 4.533-4.162a6.671 6.671 0 0 1 4.719 1.809l-1.446 2.273a6.1 6.1 0 0 0-3.348-1.408 1.415 1.415 0 0 0-1.581 1.324c0 1.057 1.572 1.475 3.064 1.906 1.72.494 3.692 1.771 3.692 4.092a4.487 4.487 0 0 1-4.733 4.324 7.9 7.9 0 0 1-5.244-2.028zm12.475 1.879V34.462h9.132v2.455h-6.347v3.342h5.459v2.455h-5.459v3.344h6.347v2.455zm-20.937 0V42.38l-5.124-7.918h3.394l3.12 5.143 3.134-5.143h3.455l-5.2 7.988v6.063zm-9.731 0l-5.863-9.244v9.244H.001V34.462h2.785l5.682 8.932v-8.932h2.78v14.051zm33.565-17.287V-.001h6.235v31.227zm-8.467 0V-.001h6.24v31.227zm-8.351 0V-.001h6.235v31.227zm-8.509 0V-.001h6.24v31.227zm-8.42 0V-.001h6.235v31.227zm-8.467 0V-.001h6.235v31.227z" fill="#fff"/></svg>