<svg xmlns="http://www.w3.org/2000/svg" width="115" height="59"><g data-name="Group 696"><path data-name="Rectangle 1628" fill="none" d="M0 0h115v59H0z"/><path d="M49.642 31.824h7.6l-4.015-6.469-7.369 11.694h-3.359l8.971-14.041a2.137 2.137 0 0 1 3.488-.025l9 14.068h-3.36l-1.576-2.614h-7.7l-1.68-2.613zm34.864 2.614V22.24h-2.85v13.39a1.4 1.4 0 0 0 .415.989 1.47 1.47 0 0 0 1.043.43H96.1l1.675-2.611H84.506zm-47.113-2.184a5.007 5.007 0 0 0 0-10.014H24.931v14.808h2.846V24.85H37.2a2.4 2.4 0 0 1 0 4.795h-8.025l8.5 7.406h4.137l-5.718-4.8h1.3zM7.4 37.048a7.404 7.404 0 1 1 0-14.808h8.607a7.405 7.405 0 0 1 0 14.811zm8.416-2.609a4.794 4.794 0 0 0 0-9.588H7.6a4.795 4.795 0 0 0 0 9.589h8.225zM69.9 37.048a7.404 7.404 0 1 1 0-14.808h10.229l-1.677 2.611h-8.36a4.795 4.795 0 1 0 0 9.589h10.267l-1.673 2.609H69.9zm34.835-2.609a4.792 4.792 0 0 1-4.611-3.484H112.3l1.677-2.611H100.12a4.794 4.794 0 0 1 4.614-3.493h8.355l1.679-2.611h-10.229a7.404 7.404 0 1 0 0 14.808h8.787L115 34.439z" fill="red"/></g></svg>