<svg xmlns="http://www.w3.org/2000/svg" width="115" height="59"><g data-name="Group 695"><path data-name="Rectangle 1628" fill="none" d="M0 0h115v59H0z"/><path d="M73.58 28.686a9.245 9.245 0 0 1-1.636.327 8.57 8.57 0 0 1-1.112.064c-.712 0-1.484-.057-2.231-.115h-.026a26.76 26.76 0 0 0-1.976-.1 9.812 9.812 0 0 0-1.255.077 9.454 9.454 0 0 0-2.1.514l.01-.1a5.388 5.388 0 0 1 4.6-4.682 5.827 5.827 0 0 1 .675-.04 5.534 5.534 0 0 1 5.093 3.981l.016.059zm2.756 1v-.032c-.01-.151-.039-.4-.071-.66a8.01 8.01 0 0 0-.31-1.4 7.717 7.717 0 0 0-8.467-5.581 7.917 7.917 0 0 0-6.788 9.053 7.748 7.748 0 0 0 7.814 6.883 8.822 8.822 0 0 0 1.044-.066 7.979 7.979 0 0 0 5.408-2.9.463.463 0 0 0 .1-.338.4.4 0 0 0-.178-.273 16.645 16.645 0 0 0-1.533-.795l-.3-.149a.732.732 0 0 0-.328-.1.415.415 0 0 0-.319.182 5.064 5.064 0 0 1-3.219 1.757 5.567 5.567 0 0 1-.675.043 5.263 5.263 0 0 1-4.907-3.386l-.015-.051.046-.022a6.23 6.23 0 0 1 2.586-.519c.183 0 .37.008.552.024.424.033.85.088 1.3.145a19.634 19.634 0 0 0 2.692.223 13.289 13.289 0 0 0 1.846-.131 9.456 9.456 0 0 0 3.415-1.161c.345-.223.332-.408.309-.741m38.218-6.852a.371.371 0 0 0-.371-.37h-2.019a.369.369 0 0 0-.368.37v14.358a.371.371 0 0 0 .368.37h2.019a.373.373 0 0 0 .371-.37V22.839m-1.379-5.49A1.823 1.823 0 1 0 115 19.174a1.827 1.827 0 0 0-1.823-1.825M86.45 24.667a5.183 5.183 0 0 1 5.1 5.364 5.024 5.024 0 0 1-4.95 5.307 5.326 5.326 0 0 1-3.713-1.437 5.153 5.153 0 0 1-1.544-3.78 5.293 5.293 0 0 1 5.1-5.454m-.09 13.283c.128.005.26.01.388.01a7.6 7.6 0 0 0 5.436-2.245 8.154 8.154 0 0 0-5.7-13.776 7.829 7.829 0 0 0-7.627 5.947 18.289 18.289 0 0 0-.324 3.678V42.83a.371.371 0 0 0 .37.373h2a.376.376 0 0 0 .375-.375v-7.1l.105.1a7.959 7.959 0 0 0 4.98 2.12M50.459 24.667a5.183 5.183 0 0 1 5.1 5.364 5.024 5.024 0 0 1-4.952 5.307 5.311 5.311 0 0 1-3.709-1.437 5.149 5.149 0 0 1-1.548-3.78 5.3 5.3 0 0 1 5.107-5.454m-.089 13.283c.128.005.259.01.386.01a7.588 7.588 0 0 0 5.436-2.245 8.152 8.152 0 0 0-5.7-13.776 7.828 7.828 0 0 0-7.629 5.945 18.064 18.064 0 0 0-.325 3.678v11.266a.371.371 0 0 0 .367.373h2.009a.376.376 0 0 0 .374-.375v-7.1l.1.1a7.964 7.964 0 0 0 4.987 2.12m45.988-2.511a8.65 8.65 0 0 0 6.122 2.508h.078c4.269-.028 6.176-2.361 6.176-4.66 0-3.18-3-4.049-3.919-4.242-.295-.058-.6-.115-.916-.178-.743-.143-1.515-.291-2.215-.484-.491-.135-2.094-.669-2.094-1.867 0-1.319 1.464-2.03 2.838-2.03a4.871 4.871 0 0 1 3.35 1.157.652.652 0 0 0 .4.163.615.615 0 0 0 .364-.132 14.651 14.651 0 0 0 1.378-1.19.417.417 0 0 0 .137-.319.571.571 0 0 0-.206-.373 8.084 8.084 0 0 0-5.47-1.848h-.016c-3.2 0-5.613 2.056-5.613 4.782 0 2.16 1.776 3.694 4.994 4.326l2.016.386c1.325.243 2.069.947 2.044 1.932-.024.96-1.2 1.954-3.136 1.954a6.055 6.055 0 0 1-4.135-1.674l-.017-.017a.484.484 0 0 0-.313-.166.5.5 0 0 0-.3.126c-.121.1-1.467 1.163-1.611 1.313a.315.315 0 0 0-.1.224.471.471 0 0 0 .16.309" fill="#2151a1"/><path d="M31.338 42.907a18.357 18.357 0 1 1 0-25.962 18.357 18.357 0 0 1 0 25.962" fill="#fff"/><path d="M32.649 20.663a11.885 11.885 0 0 1-4.37 13.134C23.136 37.585 15.64 37.59 5.29 40.851a17.032 17.032 0 0 0 27.359-20.189" fill="#2151a1"/><path d="M28.575 16.298A17.035 17.035 0 0 0 4.649 40.043a35.366 35.366 0 0 0 23.926-23.742" fill="#eb1933"/></g></svg>