<svg xmlns="http://www.w3.org/2000/svg" width="115" height="59"><g data-name="Group 686"><path data-name="Rectangle 1628" fill="none" d="M0 0h115v59H0z"/><path data-name="Path 690" d="M0 29.784c0-5.224 6.5-9.459 14.521-9.459s14.52 4.235 14.52 9.459-6.5 9.459-14.52 9.459S0 35.008 0 29.784zm18.075.341c0 3.91-1.122 7.2-2.645 8.155l.028-.005c6.5-.338 11.625-4.164 11.625-8.832a6.926 6.926 0 0 0-1.628-4.363l-.012-.025c-.079 2.156-3.137 3.98-7.372 4.646.002.14.004.281.004.424zM3.586 25.08a6.923 6.923 0 0 0-1.628 4.363c0 4.669 5.125 8.494 11.625 8.832l.028.005c-1.523-.954-2.645-4.245-2.645-8.155V29.7c-4.234-.666-7.293-2.489-7.371-4.645zm10.935 10.257c1.165 0 2.115-2.425 2.167-5.465a23.823 23.823 0 0 1-4.334 0c.046 3.041 1.001 5.465 2.167 5.465zm0-7.778c.693 0 1.367-.03 2.012-.087-.321-2.1-1.1-3.583-2.012-3.583s-1.691 1.482-2.013 3.583c.645.053 1.319.087 2.013.087zm3.353-.244c3.012-.469 5.121-1.551 5.121-2.809 0-1.689-3.795-3.057-8.475-3.057s-8.476 1.368-8.476 3.057c0 1.258 2.109 2.34 5.121 2.809.488-3.276 1.805-5.625 3.353-5.625s2.867 2.348 3.355 5.625zm56.219 2.469a7.229 7.229 0 0 1 7.229-7.229 7.23 7.23 0 0 1 7.23 7.229 7.229 7.229 0 0 1-7.23 7.23 7.229 7.229 0 0 1-7.23-7.23zm3.194 0a4.333 4.333 0 0 0 4.035 4.579 4.334 4.334 0 0 0 4.038-4.579 4.334 4.334 0 0 0-4.038-4.579 4.333 4.333 0 0 0-4.036 4.579zm-31.653 0a7.23 7.23 0 0 1 7.23-7.229 7.23 7.23 0 0 1 7.23 7.229 7.229 7.229 0 0 1-7.23 7.23 7.23 7.23 0 0 1-7.231-7.23zm3.193 0a4.333 4.333 0 0 0 4.037 4.579 4.334 4.334 0 0 0 4.037-4.579 4.334 4.334 0 0 0-4.037-4.579 4.333 4.333 0 0 0-4.037 4.579zm62.615 6.9l-1.168-3.065h-5.582l-1.169 3.065h-3.557l5.624-13.633h3.791l5.625 13.633zm-3.961-5.369h1.915l-1.9-4.989h-.027l-1.9 4.989zM93.71 36.683V25.565h-4.25v-2.514H101v2.513h-4.249v11.118zm-26.618 0h-1.544v-5.176l-5.314-8.456h3.558l3.3 5.73 3.3-5.73h3.557l-5.314 8.456v5.177zm-29.534 0V25.565h-4.25v-2.514h11.546v2.513h-4.249v11.118z" fill="red"/></g></svg>